<mxfile host="65bd71144e" scale="1" border="10">
    <diagram id="svka1P1OH72ffbiE-uLG" name="第 1 页">
        <mxGraphModel dx="1637" dy="1986" grid="1" gridSize="10" guides="1" tooltips="1" connect="1" arrows="1" fold="1" page="1" pageScale="1" pageWidth="827" pageHeight="1169" background="none" math="0" shadow="1">
            <root>
                <mxCell id="0"/>
                <mxCell id="1" parent="0"/>
                <mxCell id="2" value="&lt;font style=&quot;font-size: 15px;&quot;&gt;小游戏模块&lt;/font&gt;" style="rounded=1;whiteSpace=wrap;html=1;" parent="1" vertex="1">
                    <mxGeometry x="-230" y="558" width="120" height="60" as="geometry"/>
                </mxCell>
                <mxCell id="3" value="Core" style="rounded=1;whiteSpace=wrap;html=1;fontSize=15;" parent="1" vertex="1">
                    <mxGeometry x="540" y="318" width="120" height="60" as="geometry"/>
                </mxCell>
                <mxCell id="7" value="" style="endArrow=classic;html=1;fontSize=15;" parent="1" source="2" edge="1">
                    <mxGeometry relative="1" as="geometry">
                        <mxPoint x="290" y="308" as="sourcePoint"/>
                        <mxPoint x="-150" y="458" as="targetPoint"/>
                    </mxGeometry>
                </mxCell>
                <mxCell id="8" value="暴露接口" style="edgeLabel;resizable=0;html=1;align=center;verticalAlign=middle;fontSize=15;" parent="7" connectable="0" vertex="1">
                    <mxGeometry relative="1" as="geometry"/>
                </mxCell>
                <mxCell id="9" value="模块接口" style="swimlane;whiteSpace=wrap;html=1;fontSize=15;" parent="1" vertex="1">
                    <mxGeometry x="-210" y="143" width="550" height="315" as="geometry">
                        <mxRectangle x="-170" y="75" width="170" height="30" as="alternateBounds"/>
                    </mxGeometry>
                </mxCell>
                <mxCell id="10" value="install&lt;br&gt;处理初始化" style="rounded=1;whiteSpace=wrap;html=1;fontSize=15;" parent="9" vertex="1">
                    <mxGeometry x="30" y="40" width="90" height="45" as="geometry"/>
                </mxCell>
                <mxCell id="15" value="" style="edgeStyle=none;html=1;fontSize=15;" parent="9" source="14" target="10" edge="1">
                    <mxGeometry relative="1" as="geometry"/>
                </mxCell>
                <mxCell id="14" value="在Core安装时调用" style="text;html=1;strokeColor=none;fillColor=none;align=center;verticalAlign=middle;whiteSpace=wrap;rounded=0;fontSize=15;" parent="9" vertex="1">
                    <mxGeometry x="177.5" y="47.5" width="155" height="30" as="geometry"/>
                </mxCell>
                <mxCell id="16" value="uninstall&lt;br&gt;清除数据" style="rounded=1;whiteSpace=wrap;html=1;fontSize=15;" parent="9" vertex="1">
                    <mxGeometry x="370" y="95" width="90" height="45" as="geometry"/>
                </mxCell>
                <mxCell id="18" value="" style="edgeStyle=none;html=1;fontSize=15;" parent="9" source="17" target="16" edge="1">
                    <mxGeometry relative="1" as="geometry"/>
                </mxCell>
                <mxCell id="17" value="在Core卸载时调用" style="text;html=1;strokeColor=none;fillColor=none;align=center;verticalAlign=middle;whiteSpace=wrap;rounded=0;fontSize=15;" parent="9" vertex="1">
                    <mxGeometry x="180" y="102.5" width="150" height="30" as="geometry"/>
                </mxCell>
                <mxCell id="19" value="launch&lt;br&gt;开始时处理，例如分队等" style="rounded=1;whiteSpace=wrap;html=1;fontSize=15;" parent="9" vertex="1">
                    <mxGeometry x="40" y="130" width="130" height="80" as="geometry"/>
                </mxCell>
                <mxCell id="21" value="" style="edgeStyle=none;html=1;fontSize=15;" parent="9" source="20" target="19" edge="1">
                    <mxGeometry relative="1" as="geometry"/>
                </mxCell>
                <mxCell id="20" value="在启动该小游戏时调用" style="text;html=1;strokeColor=none;fillColor=none;align=center;verticalAlign=middle;whiteSpace=wrap;rounded=0;fontSize=15;" parent="9" vertex="1">
                    <mxGeometry x="240" y="155" width="170" height="30" as="geometry"/>
                </mxCell>
                <mxCell id="22" value="stop&lt;br&gt;数据清理，结束游戏逻辑等" style="rounded=1;whiteSpace=wrap;html=1;fontSize=15;" parent="9" vertex="1">
                    <mxGeometry x="370" y="210" width="130" height="77.5" as="geometry"/>
                </mxCell>
                <mxCell id="24" value="" style="edgeStyle=none;html=1;fontSize=15;" parent="9" source="23" target="22" edge="1">
                    <mxGeometry relative="1" as="geometry"/>
                </mxCell>
                <mxCell id="23" value="在停止该小游戏时调用" style="text;html=1;strokeColor=none;fillColor=none;align=center;verticalAlign=middle;whiteSpace=wrap;rounded=0;fontSize=15;" parent="9" vertex="1">
                    <mxGeometry x="130" y="233.75" width="170" height="30" as="geometry"/>
                </mxCell>
                <mxCell id="11" value="" style="endArrow=classic;html=1;fontSize=15;entryX=0;entryY=0.5;entryDx=0;entryDy=0;exitX=1;exitY=0.5;exitDx=0;exitDy=0;" parent="1" source="9" target="3" edge="1">
                    <mxGeometry relative="1" as="geometry">
                        <mxPoint x="220" y="348" as="sourcePoint"/>
                        <mxPoint x="360" y="298" as="targetPoint"/>
                        <Array as="points"/>
                    </mxGeometry>
                </mxCell>
                <mxCell id="12" value="供Core调用" style="edgeLabel;resizable=0;html=1;align=center;verticalAlign=middle;fontSize=15;" parent="11" connectable="0" vertex="1">
                    <mxGeometry relative="1" as="geometry"/>
                </mxCell>
                <mxCell id="25" value="具体游戏逻辑完全由小游戏模块本身处理" style="rounded=1;whiteSpace=wrap;html=1;fontSize=15;" parent="1" vertex="1">
                    <mxGeometry x="-548.5" y="578" width="190" height="150" as="geometry"/>
                </mxCell>
                <mxCell id="27" value="" style="endArrow=classic;html=1;fontSize=15;exitX=0;exitY=0.5;exitDx=0;exitDy=0;entryX=1;entryY=0.5;entryDx=0;entryDy=0;" parent="1" source="2" target="25" edge="1">
                    <mxGeometry relative="1" as="geometry">
                        <mxPoint x="-320" y="448" as="sourcePoint"/>
                        <mxPoint x="-220" y="448" as="targetPoint"/>
                    </mxGeometry>
                </mxCell>
                <mxCell id="28" value="内部处理" style="edgeLabel;resizable=0;html=1;align=center;verticalAlign=middle;fontSize=15;" parent="27" connectable="0" vertex="1">
                    <mxGeometry relative="1" as="geometry"/>
                </mxCell>
                <mxCell id="29" value="" style="endArrow=classic;html=1;fontSize=15;exitX=0.25;exitY=1;exitDx=0;exitDy=0;entryX=0.75;entryY=0;entryDx=0;entryDy=0;" parent="1" source="3" target="31" edge="1">
                    <mxGeometry relative="1" as="geometry">
                        <mxPoint x="170" y="548" as="sourcePoint"/>
                        <mxPoint x="290" y="568" as="targetPoint"/>
                    </mxGeometry>
                </mxCell>
                <mxCell id="30" value="提供" style="edgeLabel;resizable=0;html=1;align=center;verticalAlign=middle;fontSize=15;" parent="29" connectable="0" vertex="1">
                    <mxGeometry relative="1" as="geometry"/>
                </mxCell>
                <mxCell id="31" value="常用函数&lt;br&gt;（utils）" style="rounded=1;whiteSpace=wrap;html=1;fontSize=15;" parent="1" vertex="1">
                    <mxGeometry x="240" y="533" width="134" height="70" as="geometry"/>
                </mxCell>
                <mxCell id="32" value="事件系统&lt;br&gt;（Verbs）" style="rounded=1;whiteSpace=wrap;html=1;fontSize=15;" parent="1" vertex="1">
                    <mxGeometry x="300" y="728" width="133" height="70" as="geometry"/>
                </mxCell>
                <mxCell id="33" value="信息统计&lt;br&gt;（Statistics）" style="rounded=1;whiteSpace=wrap;html=1;fontSize=15;" parent="1" vertex="1">
                    <mxGeometry x="580" y="558" width="130" height="70" as="geometry"/>
                </mxCell>
                <mxCell id="35" value="" style="endArrow=classic;html=1;fontSize=15;exitX=0.5;exitY=1;exitDx=0;exitDy=0;entryX=1;entryY=0;entryDx=0;entryDy=0;" parent="1" source="3" target="32" edge="1">
                    <mxGeometry relative="1" as="geometry">
                        <mxPoint x="170" y="548" as="sourcePoint"/>
                        <mxPoint x="270" y="548" as="targetPoint"/>
                    </mxGeometry>
                </mxCell>
                <mxCell id="36" value="进度维护" style="edgeLabel;resizable=0;html=1;align=center;verticalAlign=middle;fontSize=15;" parent="35" connectable="0" vertex="1">
                    <mxGeometry relative="1" as="geometry"/>
                </mxCell>
                <mxCell id="37" value="" style="endArrow=classic;html=1;fontSize=15;exitX=0.75;exitY=1;exitDx=0;exitDy=0;entryX=0.5;entryY=0;entryDx=0;entryDy=0;" parent="1" source="3" target="33" edge="1">
                    <mxGeometry relative="1" as="geometry">
                        <mxPoint x="170" y="548" as="sourcePoint"/>
                        <mxPoint x="270" y="548" as="targetPoint"/>
                    </mxGeometry>
                </mxCell>
                <mxCell id="38" value="Scoreboard维护" style="edgeLabel;resizable=0;html=1;align=center;verticalAlign=middle;fontSize=15;" parent="37" connectable="0" vertex="1">
                    <mxGeometry relative="1" as="geometry"/>
                </mxCell>
                <mxCell id="39" value="" style="endArrow=classic;html=1;fontSize=15;entryX=1;entryY=0.5;entryDx=0;entryDy=0;exitX=0.5;exitY=1;exitDx=0;exitDy=0;" parent="1" source="33" target="32" edge="1">
                    <mxGeometry relative="1" as="geometry">
                        <mxPoint x="420" y="688" as="sourcePoint"/>
                        <mxPoint x="270" y="548" as="targetPoint"/>
                    </mxGeometry>
                </mxCell>
                <mxCell id="40" value="间接提供" style="edgeLabel;resizable=0;html=1;align=center;verticalAlign=middle;fontSize=15;" parent="39" connectable="0" vertex="1">
                    <mxGeometry relative="1" as="geometry"/>
                </mxCell>
                <mxCell id="45" value="Scoreboard&amp;amp;&lt;br&gt;Storage" style="ellipse;whiteSpace=wrap;html=1;fontSize=15;" parent="1" vertex="1">
                    <mxGeometry x="20" y="628" width="110" height="65" as="geometry"/>
                </mxCell>
                <mxCell id="46" value="" style="endArrow=classic;html=1;fontSize=15;exitX=1;exitY=0.25;exitDx=0;exitDy=0;entryX=0;entryY=0.25;entryDx=0;entryDy=0;" parent="1" source="2" target="31" edge="1">
                    <mxGeometry relative="1" as="geometry">
                        <mxPoint x="-160" y="588" as="sourcePoint"/>
                        <mxPoint x="-10.000000000000227" y="532" as="targetPoint"/>
                    </mxGeometry>
                </mxCell>
                <mxCell id="47" value="直接调用" style="edgeLabel;resizable=0;html=1;align=center;verticalAlign=middle;fontSize=15;" parent="46" connectable="0" vertex="1">
                    <mxGeometry relative="1" as="geometry"/>
                </mxCell>
                <mxCell id="48" value="" style="endArrow=classic;html=1;fontSize=15;entryX=1;entryY=1;entryDx=0;entryDy=0;exitX=0;exitY=0.5;exitDx=0;exitDy=0;" parent="1" source="45" target="2" edge="1">
                    <mxGeometry relative="1" as="geometry">
                        <mxPoint x="-10.000000000000227" y="582.2" as="sourcePoint"/>
                        <mxPoint x="-130" y="613" as="targetPoint"/>
                    </mxGeometry>
                </mxCell>
                <mxCell id="49" value="数值返回" style="edgeLabel;resizable=0;html=1;align=center;verticalAlign=middle;fontSize=15;" parent="48" connectable="0" vertex="1">
                    <mxGeometry relative="1" as="geometry"/>
                </mxCell>
                <mxCell id="52" value="" style="endArrow=classic;html=1;fontSize=15;entryX=1;entryY=0.5;entryDx=0;entryDy=0;exitX=0;exitY=0.75;exitDx=0;exitDy=0;" parent="1" source="31" target="45" edge="1">
                    <mxGeometry relative="1" as="geometry">
                        <mxPoint x="10" y="528" as="sourcePoint"/>
                        <mxPoint x="110" y="528" as="targetPoint"/>
                    </mxGeometry>
                </mxCell>
                <mxCell id="53" value="储存" style="edgeLabel;resizable=0;html=1;align=center;verticalAlign=middle;fontSize=15;" parent="52" connectable="0" vertex="1">
                    <mxGeometry relative="1" as="geometry"/>
                </mxCell>
                <mxCell id="54" value="" style="endArrow=classic;html=1;fontSize=15;exitX=0;exitY=0.5;exitDx=0;exitDy=0;entryX=1;entryY=0.75;entryDx=0;entryDy=0;" parent="1" source="31" target="2" edge="1">
                    <mxGeometry relative="1" as="geometry">
                        <mxPoint x="10" y="528" as="sourcePoint"/>
                        <mxPoint x="110" y="528" as="targetPoint"/>
                    </mxGeometry>
                </mxCell>
                <mxCell id="55" value="返回值" style="edgeLabel;resizable=0;html=1;align=center;verticalAlign=middle;fontSize=15;" parent="54" connectable="0" vertex="1">
                    <mxGeometry relative="1" as="geometry"/>
                </mxCell>
                <mxCell id="57" value="向对应事件中注册事件处理函数" style="curved=1;endArrow=classic;html=1;fontSize=15;exitX=0.5;exitY=1;exitDx=0;exitDy=0;entryX=0;entryY=0.5;entryDx=0;entryDy=0;" parent="1" source="2" target="32" edge="1">
                    <mxGeometry width="50" height="50" relative="1" as="geometry">
                        <mxPoint x="10" y="758" as="sourcePoint"/>
                        <mxPoint x="260" y="788" as="targetPoint"/>
                        <Array as="points">
                            <mxPoint x="-130" y="708"/>
                            <mxPoint x="-40" y="768"/>
                            <mxPoint x="150" y="778"/>
                        </Array>
                    </mxGeometry>
                </mxCell>
                <mxCell id="62" value="事件处理函数" style="rounded=1;whiteSpace=wrap;html=1;fontSize=15;" parent="1" vertex="1">
                    <mxGeometry x="-280" y="768" width="120" height="120" as="geometry"/>
                </mxCell>
                <mxCell id="63" value="内部编写" style="endArrow=classic;html=1;fontSize=15;entryX=0.5;entryY=0;entryDx=0;entryDy=0;exitX=0.25;exitY=1;exitDx=0;exitDy=0;" parent="1" source="2" target="62" edge="1">
                    <mxGeometry width="50" height="50" relative="1" as="geometry">
                        <mxPoint x="10" y="758" as="sourcePoint"/>
                        <mxPoint x="60" y="708" as="targetPoint"/>
                    </mxGeometry>
                </mxCell>
                <mxCell id="64" value="发生事件时调用" style="curved=1;endArrow=classic;html=1;fontSize=15;exitX=0;exitY=0.75;exitDx=0;exitDy=0;entryX=1;entryY=0.75;entryDx=0;entryDy=0;" parent="1" source="32" target="62" edge="1">
                    <mxGeometry width="50" height="50" relative="1" as="geometry">
                        <mxPoint x="-10" y="728" as="sourcePoint"/>
                        <mxPoint x="40" y="678" as="targetPoint"/>
                        <Array as="points">
                            <mxPoint x="210" y="848"/>
                            <mxPoint x="-40" y="818"/>
                        </Array>
                    </mxGeometry>
                </mxCell>
            </root>
        </mxGraphModel>
    </diagram>
</mxfile>